<svg xmlns="http://www.w3.org/2000/svg"  viewBox="0 0 64 64" width="64px" height="64px"><linearGradient id="zN2N92MJ3Yok2t2~S_9_ca" x1="32" x2="32" y1="16.11" y2="4" gradientTransform="matrix(1 0 0 -1 0 64)" gradientUnits="userSpaceOnUse"><stop offset="0" stop-color="#6dc7ff"/><stop offset="1" stop-color="#e6abff"/></linearGradient><path fill="url(#zN2N92MJ3Yok2t2~S_9_ca)" d="M55.8,47.89C52.32,54.89,41.8,60,32,60S11.68,54.89,8.2,47.89	c6.69,7.59,14.41,9.53,18.63,9.99c1.87,0.21,3.7-0.67,4.74-2.24L32,55l0.43,0.64c1.04,1.57,2.87,2.45,4.74,2.24	C41.39,57.42,49.11,55.48,55.8,47.89z"/><linearGradient id="zN2N92MJ3Yok2t2~S_9_cb" x1="32" x2="32" y1="59.001" y2="9.997" gradientTransform="matrix(1 0 0 -1 0 64)" gradientUnits="userSpaceOnUse"><stop offset="0" stop-color="#1a6dff"/><stop offset="1" stop-color="#c822ff"/></linearGradient><path fill="url(#zN2N92MJ3Yok2t2~S_9_cb)" d="M35.063,54c-0.905,0-1.691-0.655-1.867-1.559c-0.189-0.987,0.384-1.942,1.332-2.226l0,0	C34.513,50.216,39,47.952,39,43c0-2.742-4.997-15.257-7.883-22.156C28.866,27.771,25,40.236,25,43c0,4.959,4.497,7.221,4.542,7.24	c0.878,0.259,1.451,1.215,1.261,2.199c-0.192,0.985-1.091,1.69-2.106,1.544c-5.171-0.592-10.754-3.396-13.583-5.859	c-0.449-0.39-0.916-0.725-1.389-0.995c-0.6-0.343-1.357-0.532-2.312-0.578c-0.409-0.021-0.749-0.142-1.01-0.362	c-0.635-0.529-0.86-1.411-0.559-2.192c1.631-4.203,0.228-6.577,0.167-6.676c-0.452-0.725-0.377-1.677,0.182-2.316	c0.574-0.655,1.513-0.839,2.284-0.446l0.538,0.276c0.931,0.481,4.03,0.584,5.103,0.172c1.031-0.396,1.832-1.196,2.254-2.249	l9.855-26.544C30.5,5.479,31.19,5.003,31.986,5c0.819-0.006,1.502,0.47,1.783,1.206l9.867,26.577	c0.413,1.029,1.214,1.828,2.246,2.225c1.07,0.414,4.17,0.311,5.102-0.171l0.535-0.275c0.776-0.406,1.725-0.218,2.3,0.454	c0.559,0.651,0.622,1.609,0.153,2.329c-0.047,0.077-1.448,2.45,0.181,6.649c0.304,0.779,0.08,1.662-0.557,2.197	c-0.267,0.221-0.604,0.341-1.009,0.361c-0.954,0.045-1.71,0.234-2.313,0.578c-0.471,0.27-0.938,0.604-1.39,0.997	c-2.83,2.462-8.413,5.267-13.606,5.861C35.187,53.997,35.125,54,35.063,54z M11.768,44.568c1.17,0.087,2.132,0.357,2.95,0.823	c0.588,0.337,1.162,0.748,1.709,1.224c2.464,2.145,7.497,4.696,12.13,5.335C27.278,51.351,23,48.381,23,43	c0-4.115,6.763-24.453,7.051-25.316c0.131-0.394,0.492-0.666,0.907-0.683c0.401-0.023,0.797,0.223,0.96,0.605	C32.849,19.775,41,38.913,41,43c0,5.219-4.026,8.171-5.476,8.94c4.602-0.652,9.596-3.189,12.048-5.323	c0.55-0.478,1.125-0.89,1.71-1.224c0.823-0.47,1.79-0.74,2.949-0.824c-1.662-4.415-0.482-7.288-0.063-8.095L51.9,36.613	c-1.57,0.813-5.244,0.837-6.738,0.26c-1.555-0.599-2.76-1.796-3.392-3.371L32,7.187l-9.761,26.29	c-0.641,1.6-1.846,2.797-3.402,3.396c-1.496,0.573-5.168,0.551-6.738-0.261l-0.313-0.161C12.187,37.123,13.482,40.015,11.768,44.568	z M52.438,36.336L52.438,36.336L52.438,36.336z"/></svg>