<svg width="228" height="228" viewBox="0 0 228 228" fill="none" xmlns="http://www.w3.org/2000/svg">
<g id="Group 67">
<circle id="Ellipse 22" cx="114" cy="114" r="114" fill="white"/>
<path id="Subtract" fill-rule="evenodd" clip-rule="evenodd" d="M223.795 144.783L73.7439 197.652C69.8407 199.027 65.75 196.131 65.75 191.993L65.75 34.0069C65.75 29.8686 69.8407 26.9727 73.7439 28.3479L223.147 80.9888C226.303 91.4382 228 102.521 228 114C228 124.666 226.535 134.991 223.795 144.783Z" fill="url(#paint0_linear_38_389)"/>
<rect id="Rectangle 99" x="59" y="103" width="113" height="20" fill="url(#paint1_linear_38_389)"/>
<path id="Subtract_2" fill-rule="evenodd" clip-rule="evenodd" d="M0.588867 102.341C1.98354 102.769 3.46482 103 4.99997 103H195C203.284 103 210 96.2843 210 88C210 79.7157 203.284 73 195 73H7.59507C4.02545 82.258 1.62928 92.099 0.588867 102.341Z" fill="black"/>
<path id="Subtract_3" fill-rule="evenodd" clip-rule="evenodd" d="M6.84555 153H195C203.284 153 210 146.284 210 138C210 129.716 203.284 123 195 123H4.99999C3.39837 123 1.85537 123.251 0.408203 123.716C1.26936 133.919 3.47435 143.74 6.84555 153Z" fill="black"/>
</g>
<defs>
<linearGradient id="paint0_linear_38_389" x1="314" y1="113" x2="-17" y2="113" gradientUnits="userSpaceOnUse">
<stop offset="0.380208"/>
<stop offset="1" stop-color="white" stop-opacity="0"/>
</linearGradient>
<linearGradient id="paint1_linear_38_389" x1="72.5109" y1="113" x2="172" y2="113" gradientUnits="userSpaceOnUse">
<stop stop-color="white"/>
<stop offset="0.885417" stop-opacity="0"/>
</linearGradient>
</defs>
</svg>
